<?xml version="1.0" encoding="utf-8"?>
<!-- Generator: Adobe Illustrator 16.0.0, SVG Export Plug-In . SVG Version: 6.00 Build 0)  -->
<!DOCTYPE svg PUBLIC "-//W3C//DTD SVG 1.1//EN" "http://www.w3.org/Graphics/SVG/1.1/DTD/svg11.dtd">
<svg version="1.1" xmlns="http://www.w3.org/2000/svg" xmlns:xlink="http://www.w3.org/1999/xlink" x="0px" y="0px" width="250px"
	 height="250px" viewBox="0 0 250 250" enable-background="new 0 0 250 250" xml:space="preserve">
<metadata><?xpacket begin="﻿" id="W5M0MpCehiHzreSzNTczkc9d"?>
<x:xmpmeta xmlns:x="adobe:ns:meta/" x:xmptk="Adobe XMP Core 5.3-c011 66.145661, 2012/02/06-14:56:27        ">
   <rdf:RDF xmlns:rdf="http://www.w3.org/1999/02/22-rdf-syntax-ns#">
      <rdf:Description rdf:about=""
            xmlns:dc="http://purl.org/dc/elements/1.1/">
         <dc:format>image/svg+xml</dc:format>
         <dc:title>
            <rdf:Alt>
               <rdf:li xml:lang="x-default">Print</rdf:li>
            </rdf:Alt>
         </dc:title>
      </rdf:Description>
      <rdf:Description rdf:about=""
            xmlns:xmp="http://ns.adobe.com/xap/1.0/"
            xmlns:xmpGImg="http://ns.adobe.com/xap/1.0/g/img/">
         <xmp:MetadataDate>2016-07-28T07:27:26+10:00</xmp:MetadataDate>
         <xmp:ModifyDate>2016-07-28T07:27:26+10:00</xmp:ModifyDate>
         <xmp:CreateDate>2016-07-28T07:27:26+10:00</xmp:CreateDate>
         <xmp:CreatorTool>Adobe Illustrator CS6 (Macintosh)</xmp:CreatorTool>
         <xmp:Thumbnails>
            <rdf:Alt>
               <rdf:li rdf:parseType="Resource">
                  <xmpGImg:width>256</xmpGImg:width>
                  <xmpGImg:height>104</xmpGImg:height>
                  <xmpGImg:format>JPEG</xmpGImg:format>
                  <xmpGImg:image>/9j/4AAQSkZJRgABAgEASABIAAD/7QAsUGhvdG9zaG9wIDMuMAA4QklNA+0AAAAAABAASAAAAAEA&#xA;AQBIAAAAAQAB/+4ADkFkb2JlAGTAAAAAAf/bAIQABgQEBAUEBgUFBgkGBQYJCwgGBggLDAoKCwoK&#xA;DBAMDAwMDAwQDA4PEA8ODBMTFBQTExwbGxscHx8fHx8fHx8fHwEHBwcNDA0YEBAYGhURFRofHx8f&#xA;Hx8fHx8fHx8fHx8fHx8fHx8fHx8fHx8fHx8fHx8fHx8fHx8fHx8fHx8fHx8f/8AAEQgAaAEAAwER&#xA;AAIRAQMRAf/EAaIAAAAHAQEBAQEAAAAAAAAAAAQFAwIGAQAHCAkKCwEAAgIDAQEBAQEAAAAAAAAA&#xA;AQACAwQFBgcICQoLEAACAQMDAgQCBgcDBAIGAnMBAgMRBAAFIRIxQVEGE2EicYEUMpGhBxWxQiPB&#xA;UtHhMxZi8CRygvElQzRTkqKyY3PCNUQnk6OzNhdUZHTD0uIIJoMJChgZhJRFRqS0VtNVKBry4/PE&#xA;1OT0ZXWFlaW1xdXl9WZ2hpamtsbW5vY3R1dnd4eXp7fH1+f3OEhYaHiImKi4yNjo+Ck5SVlpeYmZ&#xA;qbnJ2en5KjpKWmp6ipqqusra6voRAAICAQIDBQUEBQYECAMDbQEAAhEDBCESMUEFURNhIgZxgZEy&#xA;obHwFMHR4SNCFVJicvEzJDRDghaSUyWiY7LCB3PSNeJEgxdUkwgJChgZJjZFGidkdFU38qOzwygp&#xA;0+PzhJSktMTU5PRldYWVpbXF1eX1RlZmdoaWprbG1ub2R1dnd4eXp7fH1+f3OEhYaHiImKi4yNjo&#xA;+DlJWWl5iZmpucnZ6fkqOkpaanqKmqq6ytrq+v/aAAwDAQACEQMRAD8A9U4q7FXYq7FXYq7FXYq7&#xA;FXYq7FXYq7FXYq7FXYq7FXYq7FXYq7FXYq7FXYq7FXYq7FXYq7FXYq7FXYq7FXYq7FXYq7FXYq7F&#xA;XYq7FXYq7FXYq7FXYq7FXYq7FXYq7FXYq7FXYq7FXYq7FXYq7FXYq7FXYq7FXYq7FXYq7FXYq7FX&#xA;Yq7FXYq7FXYq7FXYq7FXYq7FXYq7FXYq7FXYq7FXYq7FXYq7FXYq7FXYq7FXYq7FXYq7FXYq7FXY&#xA;q7FXYq7FXYq7FXYq7FXYq7FXYq7FXYq7FXYq7FXYq7FXYq7FXYq7FXYq7FXYq7FXYq7FXYq7FXYq&#xA;7FXYq7FXYq7FXYq7FXYq7FXYq7FXYq7FXYq7FXYq7FXYq7FXYq7FXYq7FXYq7FXYq7FXYq7FXYq7&#xA;FXYq7FXYq7FXYq7FXYq7FXYq7FXYq7FXYq7FXYq7FXYq7FXYq7FXYq7FXYq7FXYq7FXYq7FXYq7F&#xA;XYq7FXYq7FXYq7FXYq7FXYq7FXYq7FXYq7FXYq7FXYq7FXYq7FXYq7FXYq7FXYq7FXYq7FXYq7FX&#xA;Yq7FXYq7FXYq7FXYq7FXYq7FXYq7FXYq7FXYq7FXYq7FXYq7FXYq7FXYq7FXYq7FXYq7FXYq7FXY&#xA;q7FXYq7FXYq7FXYq7FXYq7FXYq7FXYq7FXYq7FXYq7FXYq7FXYq7FXYq7FXYq7FXYq7FXYq7FXYq&#xA;7FXYq7FXYq7FXYq7FXYq7FXYq7FXYq7FXYq7FXYq7FXYq7FXYq7FXYq7FXYq7FXYq7FXYq7FXYq7&#xA;FXYq7FXYq7FXYq7FXYq7FXYq7FXYq7FXYq7FXYq7FXYq7FXYq7FXYq7FXYq7FXYq7FXYq7FXYq7F&#xA;XYq7FXYq7FXYq7FXYq7FXYq7FXYq7FXYq7FXYq7FXYq7FXYq7FXYq7FXYq7FXYq7FXYq7FXYq7FX&#xA;Yq7FXYq7FXYq7FXYq7FXYq7FXYq7FXYq7FXYq7FXYq7FXYq7FXYq7FXYq7FXYq7FXYq7FXYq7FXY&#xA;q7FXYq7FXYq7FXYq7FXYq7FXYq7FXYq7FX//2Q==</xmpGImg:image>
               </rdf:li>
            </rdf:Alt>
         </xmp:Thumbnails>
      </rdf:Description>
      <rdf:Description rdf:about=""
            xmlns:xmpMM="http://ns.adobe.com/xap/1.0/mm/"
            xmlns:stRef="http://ns.adobe.com/xap/1.0/sType/ResourceRef#"
            xmlns:stEvt="http://ns.adobe.com/xap/1.0/sType/ResourceEvent#">
         <xmpMM:InstanceID>xmp.iid:078011740720681180838499AD78B6D3</xmpMM:InstanceID>
         <xmpMM:DocumentID>xmp.did:078011740720681180838499AD78B6D3</xmpMM:DocumentID>
         <xmpMM:OriginalDocumentID>uuid:5D20892493BFDB11914A8590D31508C8</xmpMM:OriginalDocumentID>
         <xmpMM:RenditionClass>proof:pdf</xmpMM:RenditionClass>
         <xmpMM:DerivedFrom rdf:parseType="Resource">
            <stRef:instanceID>uuid:520087ee-bf46-d345-9e77-b26925047073</stRef:instanceID>
            <stRef:documentID>xmp.did:F77F117407206811822AC73D08666C27</stRef:documentID>
            <stRef:originalDocumentID>uuid:5D20892493BFDB11914A8590D31508C8</stRef:originalDocumentID>
            <stRef:renditionClass>proof:pdf</stRef:renditionClass>
         </xmpMM:DerivedFrom>
         <xmpMM:History>
            <rdf:Seq>
               <rdf:li rdf:parseType="Resource">
                  <stEvt:action>saved</stEvt:action>
                  <stEvt:instanceID>xmp.iid:F77F117407206811822AC73D08666C27</stEvt:instanceID>
                  <stEvt:when>2016-07-27T16:02:30+10:00</stEvt:when>
                  <stEvt:softwareAgent>Adobe Illustrator CS6 (Macintosh)</stEvt:softwareAgent>
                  <stEvt:changed>/</stEvt:changed>
               </rdf:li>
               <rdf:li rdf:parseType="Resource">
                  <stEvt:action>saved</stEvt:action>
                  <stEvt:instanceID>xmp.iid:078011740720681180838499AD78B6D3</stEvt:instanceID>
                  <stEvt:when>2016-07-28T07:27:26+10:00</stEvt:when>
                  <stEvt:softwareAgent>Adobe Illustrator CS6 (Macintosh)</stEvt:softwareAgent>
                  <stEvt:changed>/</stEvt:changed>
               </rdf:li>
            </rdf:Seq>
         </xmpMM:History>
      </rdf:Description>
      <rdf:Description rdf:about=""
            xmlns:illustrator="http://ns.adobe.com/illustrator/1.0/">
         <illustrator:StartupProfile>Print</illustrator:StartupProfile>
      </rdf:Description>
      <rdf:Description rdf:about=""
            xmlns:xmpTPg="http://ns.adobe.com/xap/1.0/t/pg/"
            xmlns:stDim="http://ns.adobe.com/xap/1.0/sType/Dimensions#"
            xmlns:xmpG="http://ns.adobe.com/xap/1.0/g/">
         <xmpTPg:HasVisibleOverprint>False</xmpTPg:HasVisibleOverprint>
         <xmpTPg:HasVisibleTransparency>False</xmpTPg:HasVisibleTransparency>
         <xmpTPg:NPages>1</xmpTPg:NPages>
         <xmpTPg:MaxPageSize rdf:parseType="Resource">
            <stDim:w>250.000000</stDim:w>
            <stDim:h>250.000000</stDim:h>
            <stDim:unit>Pixels</stDim:unit>
         </xmpTPg:MaxPageSize>
         <xmpTPg:SwatchGroups>
            <rdf:Seq>
               <rdf:li rdf:parseType="Resource">
                  <xmpG:groupName>Default Swatch Group</xmpG:groupName>
                  <xmpG:groupType>0</xmpG:groupType>
                  <xmpG:Colorants>
                     <rdf:Seq>
                        <rdf:li rdf:parseType="Resource">
                           <xmpG:swatchName>White</xmpG:swatchName>
                           <xmpG:mode>CMYK</xmpG:mode>
                           <xmpG:type>PROCESS</xmpG:type>
                           <xmpG:cyan>0.000000</xmpG:cyan>
                           <xmpG:magenta>0.000000</xmpG:magenta>
                           <xmpG:yellow>0.000000</xmpG:yellow>
                           <xmpG:black>0.000000</xmpG:black>
                        </rdf:li>
                        <rdf:li rdf:parseType="Resource">
                           <xmpG:swatchName>Black</xmpG:swatchName>
                           <xmpG:mode>CMYK</xmpG:mode>
                           <xmpG:type>PROCESS</xmpG:type>
                           <xmpG:cyan>0.000000</xmpG:cyan>
                           <xmpG:magenta>0.000000</xmpG:magenta>
                           <xmpG:yellow>0.000000</xmpG:yellow>
                           <xmpG:black>100.000000</xmpG:black>
                        </rdf:li>
                        <rdf:li rdf:parseType="Resource">
                           <xmpG:swatchName>CMYK Red</xmpG:swatchName>
                           <xmpG:mode>CMYK</xmpG:mode>
                           <xmpG:type>PROCESS</xmpG:type>
                           <xmpG:cyan>0.000000</xmpG:cyan>
                           <xmpG:magenta>100.000000</xmpG:magenta>
                           <xmpG:yellow>100.000000</xmpG:yellow>
                           <xmpG:black>0.000000</xmpG:black>
                        </rdf:li>
                        <rdf:li rdf:parseType="Resource">
                           <xmpG:swatchName>CMYK Yellow</xmpG:swatchName>
                           <xmpG:mode>CMYK</xmpG:mode>
                           <xmpG:type>PROCESS</xmpG:type>
                           <xmpG:cyan>0.000000</xmpG:cyan>
                           <xmpG:magenta>0.000000</xmpG:magenta>
                           <xmpG:yellow>100.000000</xmpG:yellow>
                           <xmpG:black>0.000000</xmpG:black>
                        </rdf:li>
                        <rdf:li rdf:parseType="Resource">
                           <xmpG:swatchName>CMYK Green</xmpG:swatchName>
                           <xmpG:mode>CMYK</xmpG:mode>
                           <xmpG:type>PROCESS</xmpG:type>
                           <xmpG:cyan>100.000000</xmpG:cyan>
                           <xmpG:magenta>0.000000</xmpG:magenta>
                           <xmpG:yellow>100.000000</xmpG:yellow>
                           <xmpG:black>0.000000</xmpG:black>
                        </rdf:li>
                        <rdf:li rdf:parseType="Resource">
                           <xmpG:swatchName>CMYK Cyan</xmpG:swatchName>
                           <xmpG:mode>CMYK</xmpG:mode>
                           <xmpG:type>PROCESS</xmpG:type>
                           <xmpG:cyan>100.000000</xmpG:cyan>
                           <xmpG:magenta>0.000000</xmpG:magenta>
                           <xmpG:yellow>0.000000</xmpG:yellow>
                           <xmpG:black>0.000000</xmpG:black>
                        </rdf:li>
                        <rdf:li rdf:parseType="Resource">
                           <xmpG:swatchName>CMYK Blue</xmpG:swatchName>
                           <xmpG:mode>CMYK</xmpG:mode>
                           <xmpG:type>PROCESS</xmpG:type>
                           <xmpG:cyan>100.000000</xmpG:cyan>
                           <xmpG:magenta>100.000000</xmpG:magenta>
                           <xmpG:yellow>0.000000</xmpG:yellow>
                           <xmpG:black>0.000000</xmpG:black>
                        </rdf:li>
                        <rdf:li rdf:parseType="Resource">
                           <xmpG:swatchName>CMYK Magenta</xmpG:swatchName>
                           <xmpG:mode>CMYK</xmpG:mode>
                           <xmpG:type>PROCESS</xmpG:type>
                           <xmpG:cyan>0.000000</xmpG:cyan>
                           <xmpG:magenta>100.000000</xmpG:magenta>
                           <xmpG:yellow>0.000000</xmpG:yellow>
                           <xmpG:black>0.000000</xmpG:black>
                        </rdf:li>
                        <rdf:li rdf:parseType="Resource">
                           <xmpG:swatchName>C=15 M=100 Y=90 K=10</xmpG:swatchName>
                           <xmpG:mode>CMYK</xmpG:mode>
                           <xmpG:type>PROCESS</xmpG:type>
                           <xmpG:cyan>14.999998</xmpG:cyan>
                           <xmpG:magenta>100.000000</xmpG:magenta>
                           <xmpG:yellow>90.000000</xmpG:yellow>
                           <xmpG:black>10.000002</xmpG:black>
                        </rdf:li>
                        <rdf:li rdf:parseType="Resource">
                           <xmpG:swatchName>C=0 M=90 Y=85 K=0</xmpG:swatchName>
                           <xmpG:mode>CMYK</xmpG:mode>
                           <xmpG:type>PROCESS</xmpG:type>
                           <xmpG:cyan>0.000000</xmpG:cyan>
                           <xmpG:magenta>90.000000</xmpG:magenta>
                           <xmpG:yellow>85.000000</xmpG:yellow>
                           <xmpG:black>0.000000</xmpG:black>
                        </rdf:li>
                        <rdf:li rdf:parseType="Resource">
                           <xmpG:swatchName>C=0 M=80 Y=95 K=0</xmpG:swatchName>
                           <xmpG:mode>CMYK</xmpG:mode>
                           <xmpG:type>PROCESS</xmpG:type>
                           <xmpG:cyan>0.000000</xmpG:cyan>
                           <xmpG:magenta>80.000000</xmpG:magenta>
                           <xmpG:yellow>95.000000</xmpG:yellow>
                           <xmpG:black>0.000000</xmpG:black>
                        </rdf:li>
                        <rdf:li rdf:parseType="Resource">
                           <xmpG:swatchName>C=0 M=50 Y=100 K=0</xmpG:swatchName>
                           <xmpG:mode>CMYK</xmpG:mode>
                           <xmpG:type>PROCESS</xmpG:type>
                           <xmpG:cyan>0.000000</xmpG:cyan>
                           <xmpG:magenta>50.000000</xmpG:magenta>
                           <xmpG:yellow>100.000000</xmpG:yellow>
                           <xmpG:black>0.000000</xmpG:black>
                        </rdf:li>
                        <rdf:li rdf:parseType="Resource">
                           <xmpG:swatchName>C=0 M=35 Y=85 K=0</xmpG:swatchName>
                           <xmpG:mode>CMYK</xmpG:mode>
                           <xmpG:type>PROCESS</xmpG:type>
                           <xmpG:cyan>0.000000</xmpG:cyan>
                           <xmpG:magenta>35.000004</xmpG:magenta>
                           <xmpG:yellow>85.000000</xmpG:yellow>
                           <xmpG:black>0.000000</xmpG:black>
                        </rdf:li>
                        <rdf:li rdf:parseType="Resource">
                           <xmpG:swatchName>C=5 M=0 Y=90 K=0</xmpG:swatchName>
                           <xmpG:mode>CMYK</xmpG:mode>
                           <xmpG:type>PROCESS</xmpG:type>
                           <xmpG:cyan>5.000001</xmpG:cyan>
                           <xmpG:magenta>0.000000</xmpG:magenta>
                           <xmpG:yellow>90.000000</xmpG:yellow>
                           <xmpG:black>0.000000</xmpG:black>
                        </rdf:li>
                        <rdf:li rdf:parseType="Resource">
                           <xmpG:swatchName>C=20 M=0 Y=100 K=0</xmpG:swatchName>
                           <xmpG:mode>CMYK</xmpG:mode>
                           <xmpG:type>PROCESS</xmpG:type>
                           <xmpG:cyan>19.999998</xmpG:cyan>
                           <xmpG:magenta>0.000000</xmpG:magenta>
                           <xmpG:yellow>100.000000</xmpG:yellow>
                           <xmpG:black>0.000000</xmpG:black>
                        </rdf:li>
                        <rdf:li rdf:parseType="Resource">
                           <xmpG:swatchName>C=50 M=0 Y=100 K=0</xmpG:swatchName>
                           <xmpG:mode>CMYK</xmpG:mode>
                           <xmpG:type>PROCESS</xmpG:type>
                           <xmpG:cyan>50.000000</xmpG:cyan>
                           <xmpG:magenta>0.000000</xmpG:magenta>
                           <xmpG:yellow>100.000000</xmpG:yellow>
                           <xmpG:black>0.000000</xmpG:black>
                        </rdf:li>
                        <rdf:li rdf:parseType="Resource">
                           <xmpG:swatchName>C=75 M=0 Y=100 K=0</xmpG:swatchName>
                           <xmpG:mode>CMYK</xmpG:mode>
                           <xmpG:type>PROCESS</xmpG:type>
                           <xmpG:cyan>75.000000</xmpG:cyan>
                           <xmpG:magenta>0.000000</xmpG:magenta>
                           <xmpG:yellow>100.000000</xmpG:yellow>
                           <xmpG:black>0.000000</xmpG:black>
                        </rdf:li>
                        <rdf:li rdf:parseType="Resource">
                           <xmpG:swatchName>C=85 M=10 Y=100 K=10</xmpG:swatchName>
                           <xmpG:mode>CMYK</xmpG:mode>
                           <xmpG:type>PROCESS</xmpG:type>
                           <xmpG:cyan>85.000000</xmpG:cyan>
                           <xmpG:magenta>10.000002</xmpG:magenta>
                           <xmpG:yellow>100.000000</xmpG:yellow>
                           <xmpG:black>10.000002</xmpG:black>
                        </rdf:li>
                        <rdf:li rdf:parseType="Resource">
                           <xmpG:swatchName>C=90 M=30 Y=95 K=30</xmpG:swatchName>
                           <xmpG:mode>CMYK</xmpG:mode>
                           <xmpG:type>PROCESS</xmpG:type>
                           <xmpG:cyan>90.000000</xmpG:cyan>
                           <xmpG:magenta>30.000002</xmpG:magenta>
                           <xmpG:yellow>95.000000</xmpG:yellow>
                           <xmpG:black>30.000002</xmpG:black>
                        </rdf:li>
                        <rdf:li rdf:parseType="Resource">
                           <xmpG:swatchName>C=75 M=0 Y=75 K=0</xmpG:swatchName>
                           <xmpG:mode>CMYK</xmpG:mode>
                           <xmpG:type>PROCESS</xmpG:type>
                           <xmpG:cyan>75.000000</xmpG:cyan>
                           <xmpG:magenta>0.000000</xmpG:magenta>
                           <xmpG:yellow>75.000000</xmpG:yellow>
                           <xmpG:black>0.000000</xmpG:black>
                        </rdf:li>
                        <rdf:li rdf:parseType="Resource">
                           <xmpG:swatchName>C=80 M=10 Y=45 K=0</xmpG:swatchName>
                           <xmpG:mode>CMYK</xmpG:mode>
                           <xmpG:type>PROCESS</xmpG:type>
                           <xmpG:cyan>80.000000</xmpG:cyan>
                           <xmpG:magenta>10.000002</xmpG:magenta>
                           <xmpG:yellow>45.000000</xmpG:yellow>
                           <xmpG:black>0.000000</xmpG:black>
                        </rdf:li>
                        <rdf:li rdf:parseType="Resource">
                           <xmpG:swatchName>C=70 M=15 Y=0 K=0</xmpG:swatchName>
                           <xmpG:mode>CMYK</xmpG:mode>
                           <xmpG:type>PROCESS</xmpG:type>
                           <xmpG:cyan>70.000000</xmpG:cyan>
                           <xmpG:magenta>14.999998</xmpG:magenta>
                           <xmpG:yellow>0.000000</xmpG:yellow>
                           <xmpG:black>0.000000</xmpG:black>
                        </rdf:li>
                        <rdf:li rdf:parseType="Resource">
                           <xmpG:swatchName>C=85 M=50 Y=0 K=0</xmpG:swatchName>
                           <xmpG:mode>CMYK</xmpG:mode>
                           <xmpG:type>PROCESS</xmpG:type>
                           <xmpG:cyan>85.000000</xmpG:cyan>
                           <xmpG:magenta>50.000000</xmpG:magenta>
                           <xmpG:yellow>0.000000</xmpG:yellow>
                           <xmpG:black>0.000000</xmpG:black>
                        </rdf:li>
                        <rdf:li rdf:parseType="Resource">
                           <xmpG:swatchName>C=100 M=95 Y=5 K=0</xmpG:swatchName>
                           <xmpG:mode>CMYK</xmpG:mode>
                           <xmpG:type>PROCESS</xmpG:type>
                           <xmpG:cyan>100.000000</xmpG:cyan>
                           <xmpG:magenta>95.000000</xmpG:magenta>
                           <xmpG:yellow>5.000001</xmpG:yellow>
                           <xmpG:black>0.000000</xmpG:black>
                        </rdf:li>
                        <rdf:li rdf:parseType="Resource">
                           <xmpG:swatchName>C=100 M=100 Y=25 K=25</xmpG:swatchName>
                           <xmpG:mode>CMYK</xmpG:mode>
                           <xmpG:type>PROCESS</xmpG:type>
                           <xmpG:cyan>100.000000</xmpG:cyan>
                           <xmpG:magenta>100.000000</xmpG:magenta>
                           <xmpG:yellow>25.000000</xmpG:yellow>
                           <xmpG:black>25.000000</xmpG:black>
                        </rdf:li>
                        <rdf:li rdf:parseType="Resource">
                           <xmpG:swatchName>C=75 M=100 Y=0 K=0</xmpG:swatchName>
                           <xmpG:mode>CMYK</xmpG:mode>
                           <xmpG:type>PROCESS</xmpG:type>
                           <xmpG:cyan>75.000000</xmpG:cyan>
                           <xmpG:magenta>100.000000</xmpG:magenta>
                           <xmpG:yellow>0.000000</xmpG:yellow>
                           <xmpG:black>0.000000</xmpG:black>
                        </rdf:li>
                        <rdf:li rdf:parseType="Resource">
                           <xmpG:swatchName>C=50 M=100 Y=0 K=0</xmpG:swatchName>
                           <xmpG:mode>CMYK</xmpG:mode>
                           <xmpG:type>PROCESS</xmpG:type>
                           <xmpG:cyan>50.000000</xmpG:cyan>
                           <xmpG:magenta>100.000000</xmpG:magenta>
                           <xmpG:yellow>0.000000</xmpG:yellow>
                           <xmpG:black>0.000000</xmpG:black>
                        </rdf:li>
                        <rdf:li rdf:parseType="Resource">
                           <xmpG:swatchName>C=35 M=100 Y=35 K=10</xmpG:swatchName>
                           <xmpG:mode>CMYK</xmpG:mode>
                           <xmpG:type>PROCESS</xmpG:type>
                           <xmpG:cyan>35.000004</xmpG:cyan>
                           <xmpG:magenta>100.000000</xmpG:magenta>
                           <xmpG:yellow>35.000004</xmpG:yellow>
                           <xmpG:black>10.000002</xmpG:black>
                        </rdf:li>
                        <rdf:li rdf:parseType="Resource">
                           <xmpG:swatchName>C=10 M=100 Y=50 K=0</xmpG:swatchName>
                           <xmpG:mode>CMYK</xmpG:mode>
                           <xmpG:type>PROCESS</xmpG:type>
                           <xmpG:cyan>10.000002</xmpG:cyan>
                           <xmpG:magenta>100.000000</xmpG:magenta>
                           <xmpG:yellow>50.000000</xmpG:yellow>
                           <xmpG:black>0.000000</xmpG:black>
                        </rdf:li>
                        <rdf:li rdf:parseType="Resource">
                           <xmpG:swatchName>C=0 M=95 Y=20 K=0</xmpG:swatchName>
                           <xmpG:mode>CMYK</xmpG:mode>
                           <xmpG:type>PROCESS</xmpG:type>
                           <xmpG:cyan>0.000000</xmpG:cyan>
                           <xmpG:magenta>95.000000</xmpG:magenta>
                           <xmpG:yellow>19.999998</xmpG:yellow>
                           <xmpG:black>0.000000</xmpG:black>
                        </rdf:li>
                        <rdf:li rdf:parseType="Resource">
                           <xmpG:swatchName>C=25 M=25 Y=40 K=0</xmpG:swatchName>
                           <xmpG:mode>CMYK</xmpG:mode>
                           <xmpG:type>PROCESS</xmpG:type>
                           <xmpG:cyan>25.000000</xmpG:cyan>
                           <xmpG:magenta>25.000000</xmpG:magenta>
                           <xmpG:yellow>39.999996</xmpG:yellow>
                           <xmpG:black>0.000000</xmpG:black>
                        </rdf:li>
                        <rdf:li rdf:parseType="Resource">
                           <xmpG:swatchName>C=40 M=45 Y=50 K=5</xmpG:swatchName>
                           <xmpG:mode>CMYK</xmpG:mode>
                           <xmpG:type>PROCESS</xmpG:type>
                           <xmpG:cyan>39.999996</xmpG:cyan>
                           <xmpG:magenta>45.000000</xmpG:magenta>
                           <xmpG:yellow>50.000000</xmpG:yellow>
                           <xmpG:black>5.000001</xmpG:black>
                        </rdf:li>
                        <rdf:li rdf:parseType="Resource">
                           <xmpG:swatchName>C=50 M=50 Y=60 K=25</xmpG:swatchName>
                           <xmpG:mode>CMYK</xmpG:mode>
                           <xmpG:type>PROCESS</xmpG:type>
                           <xmpG:cyan>50.000000</xmpG:cyan>
                           <xmpG:magenta>50.000000</xmpG:magenta>
                           <xmpG:yellow>60.000004</xmpG:yellow>
                           <xmpG:black>25.000000</xmpG:black>
                        </rdf:li>
                        <rdf:li rdf:parseType="Resource">
                           <xmpG:swatchName>C=55 M=60 Y=65 K=40</xmpG:swatchName>
                           <xmpG:mode>CMYK</xmpG:mode>
                           <xmpG:type>PROCESS</xmpG:type>
                           <xmpG:cyan>55.000000</xmpG:cyan>
                           <xmpG:magenta>60.000004</xmpG:magenta>
                           <xmpG:yellow>65.000000</xmpG:yellow>
                           <xmpG:black>39.999996</xmpG:black>
                        </rdf:li>
                        <rdf:li rdf:parseType="Resource">
                           <xmpG:swatchName>C=25 M=40 Y=65 K=0</xmpG:swatchName>
                           <xmpG:mode>CMYK</xmpG:mode>
                           <xmpG:type>PROCESS</xmpG:type>
                           <xmpG:cyan>25.000000</xmpG:cyan>
                           <xmpG:magenta>39.999996</xmpG:magenta>
                           <xmpG:yellow>65.000000</xmpG:yellow>
                           <xmpG:black>0.000000</xmpG:black>
                        </rdf:li>
                        <rdf:li rdf:parseType="Resource">
                           <xmpG:swatchName>C=30 M=50 Y=75 K=10</xmpG:swatchName>
                           <xmpG:mode>CMYK</xmpG:mode>
                           <xmpG:type>PROCESS</xmpG:type>
                           <xmpG:cyan>30.000002</xmpG:cyan>
                           <xmpG:magenta>50.000000</xmpG:magenta>
                           <xmpG:yellow>75.000000</xmpG:yellow>
                           <xmpG:black>10.000002</xmpG:black>
                        </rdf:li>
                        <rdf:li rdf:parseType="Resource">
                           <xmpG:swatchName>C=35 M=60 Y=80 K=25</xmpG:swatchName>
                           <xmpG:mode>CMYK</xmpG:mode>
                           <xmpG:type>PROCESS</xmpG:type>
                           <xmpG:cyan>35.000004</xmpG:cyan>
                           <xmpG:magenta>60.000004</xmpG:magenta>
                           <xmpG:yellow>80.000000</xmpG:yellow>
                           <xmpG:black>25.000000</xmpG:black>
                        </rdf:li>
                        <rdf:li rdf:parseType="Resource">
                           <xmpG:swatchName>C=40 M=65 Y=90 K=35</xmpG:swatchName>
                           <xmpG:mode>CMYK</xmpG:mode>
                           <xmpG:type>PROCESS</xmpG:type>
                           <xmpG:cyan>39.999996</xmpG:cyan>
                           <xmpG:magenta>65.000000</xmpG:magenta>
                           <xmpG:yellow>90.000000</xmpG:yellow>
                           <xmpG:black>35.000004</xmpG:black>
                        </rdf:li>
                        <rdf:li rdf:parseType="Resource">
                           <xmpG:swatchName>C=40 M=70 Y=100 K=50</xmpG:swatchName>
                           <xmpG:mode>CMYK</xmpG:mode>
                           <xmpG:type>PROCESS</xmpG:type>
                           <xmpG:cyan>39.999996</xmpG:cyan>
                           <xmpG:magenta>70.000000</xmpG:magenta>
                           <xmpG:yellow>100.000000</xmpG:yellow>
                           <xmpG:black>50.000000</xmpG:black>
                        </rdf:li>
                        <rdf:li rdf:parseType="Resource">
                           <xmpG:swatchName>C=50 M=70 Y=80 K=70</xmpG:swatchName>
                           <xmpG:mode>CMYK</xmpG:mode>
                           <xmpG:type>PROCESS</xmpG:type>
                           <xmpG:cyan>50.000000</xmpG:cyan>
                           <xmpG:magenta>70.000000</xmpG:magenta>
                           <xmpG:yellow>80.000000</xmpG:yellow>
                           <xmpG:black>70.000000</xmpG:black>
                        </rdf:li>
                     </rdf:Seq>
                  </xmpG:Colorants>
               </rdf:li>
               <rdf:li rdf:parseType="Resource">
                  <xmpG:groupName>Grays</xmpG:groupName>
                  <xmpG:groupType>1</xmpG:groupType>
                  <xmpG:Colorants>
                     <rdf:Seq>
                        <rdf:li rdf:parseType="Resource">
                           <xmpG:swatchName>C=0 M=0 Y=0 K=100</xmpG:swatchName>
                           <xmpG:mode>CMYK</xmpG:mode>
                           <xmpG:type>PROCESS</xmpG:type>
                           <xmpG:cyan>0.000000</xmpG:cyan>
                           <xmpG:magenta>0.000000</xmpG:magenta>
                           <xmpG:yellow>0.000000</xmpG:yellow>
                           <xmpG:black>100.000000</xmpG:black>
                        </rdf:li>
                        <rdf:li rdf:parseType="Resource">
                           <xmpG:swatchName>C=0 M=0 Y=0 K=90</xmpG:swatchName>
                           <xmpG:mode>CMYK</xmpG:mode>
                           <xmpG:type>PROCESS</xmpG:type>
                           <xmpG:cyan>0.000000</xmpG:cyan>
                           <xmpG:magenta>0.000000</xmpG:magenta>
                           <xmpG:yellow>0.000000</xmpG:yellow>
                           <xmpG:black>89.999405</xmpG:black>
                        </rdf:li>
                        <rdf:li rdf:parseType="Resource">
                           <xmpG:swatchName>C=0 M=0 Y=0 K=80</xmpG:swatchName>
                           <xmpG:mode>CMYK</xmpG:mode>
                           <xmpG:type>PROCESS</xmpG:type>
                           <xmpG:cyan>0.000000</xmpG:cyan>
                           <xmpG:magenta>0.000000</xmpG:magenta>
                           <xmpG:yellow>0.000000</xmpG:yellow>
                           <xmpG:black>79.998795</xmpG:black>
                        </rdf:li>
                        <rdf:li rdf:parseType="Resource">
                           <xmpG:swatchName>C=0 M=0 Y=0 K=70</xmpG:swatchName>
                           <xmpG:mode>CMYK</xmpG:mode>
                           <xmpG:type>PROCESS</xmpG:type>
                           <xmpG:cyan>0.000000</xmpG:cyan>
                           <xmpG:magenta>0.000000</xmpG:magenta>
                           <xmpG:yellow>0.000000</xmpG:yellow>
                           <xmpG:black>69.999702</xmpG:black>
                        </rdf:li>
                        <rdf:li rdf:parseType="Resource">
                           <xmpG:swatchName>C=0 M=0 Y=0 K=60</xmpG:swatchName>
                           <xmpG:mode>CMYK</xmpG:mode>
                           <xmpG:type>PROCESS</xmpG:type>
                           <xmpG:cyan>0.000000</xmpG:cyan>
                           <xmpG:magenta>0.000000</xmpG:magenta>
                           <xmpG:yellow>0.000000</xmpG:yellow>
                           <xmpG:black>59.999104</xmpG:black>
                        </rdf:li>
                        <rdf:li rdf:parseType="Resource">
                           <xmpG:swatchName>C=0 M=0 Y=0 K=50</xmpG:swatchName>
                           <xmpG:mode>CMYK</xmpG:mode>
                           <xmpG:type>PROCESS</xmpG:type>
                           <xmpG:cyan>0.000000</xmpG:cyan>
                           <xmpG:magenta>0.000000</xmpG:magenta>
                           <xmpG:yellow>0.000000</xmpG:yellow>
                           <xmpG:black>50.000000</xmpG:black>
                        </rdf:li>
                        <rdf:li rdf:parseType="Resource">
                           <xmpG:swatchName>C=0 M=0 Y=0 K=40</xmpG:swatchName>
                           <xmpG:mode>CMYK</xmpG:mode>
                           <xmpG:type>PROCESS</xmpG:type>
                           <xmpG:cyan>0.000000</xmpG:cyan>
                           <xmpG:magenta>0.000000</xmpG:magenta>
                           <xmpG:yellow>0.000000</xmpG:yellow>
                           <xmpG:black>39.999401</xmpG:black>
                        </rdf:li>
                        <rdf:li rdf:parseType="Resource">
                           <xmpG:swatchName>C=0 M=0 Y=0 K=30</xmpG:swatchName>
                           <xmpG:mode>CMYK</xmpG:mode>
                           <xmpG:type>PROCESS</xmpG:type>
                           <xmpG:cyan>0.000000</xmpG:cyan>
                           <xmpG:magenta>0.000000</xmpG:magenta>
                           <xmpG:yellow>0.000000</xmpG:yellow>
                           <xmpG:black>29.998802</xmpG:black>
                        </rdf:li>
                        <rdf:li rdf:parseType="Resource">
                           <xmpG:swatchName>C=0 M=0 Y=0 K=20</xmpG:swatchName>
                           <xmpG:mode>CMYK</xmpG:mode>
                           <xmpG:type>PROCESS</xmpG:type>
                           <xmpG:cyan>0.000000</xmpG:cyan>
                           <xmpG:magenta>0.000000</xmpG:magenta>
                           <xmpG:yellow>0.000000</xmpG:yellow>
                           <xmpG:black>19.999701</xmpG:black>
                        </rdf:li>
                        <rdf:li rdf:parseType="Resource">
                           <xmpG:swatchName>C=0 M=0 Y=0 K=10</xmpG:swatchName>
                           <xmpG:mode>CMYK</xmpG:mode>
                           <xmpG:type>PROCESS</xmpG:type>
                           <xmpG:cyan>0.000000</xmpG:cyan>
                           <xmpG:magenta>0.000000</xmpG:magenta>
                           <xmpG:yellow>0.000000</xmpG:yellow>
                           <xmpG:black>9.999103</xmpG:black>
                        </rdf:li>
                        <rdf:li rdf:parseType="Resource">
                           <xmpG:swatchName>C=0 M=0 Y=0 K=5</xmpG:swatchName>
                           <xmpG:mode>CMYK</xmpG:mode>
                           <xmpG:type>PROCESS</xmpG:type>
                           <xmpG:cyan>0.000000</xmpG:cyan>
                           <xmpG:magenta>0.000000</xmpG:magenta>
                           <xmpG:yellow>0.000000</xmpG:yellow>
                           <xmpG:black>4.998803</xmpG:black>
                        </rdf:li>
                     </rdf:Seq>
                  </xmpG:Colorants>
               </rdf:li>
               <rdf:li rdf:parseType="Resource">
                  <xmpG:groupName>Brights</xmpG:groupName>
                  <xmpG:groupType>1</xmpG:groupType>
                  <xmpG:Colorants>
                     <rdf:Seq>
                        <rdf:li rdf:parseType="Resource">
                           <xmpG:swatchName>C=0 M=100 Y=100 K=0</xmpG:swatchName>
                           <xmpG:mode>CMYK</xmpG:mode>
                           <xmpG:type>PROCESS</xmpG:type>
                           <xmpG:cyan>0.000000</xmpG:cyan>
                           <xmpG:magenta>100.000000</xmpG:magenta>
                           <xmpG:yellow>100.000000</xmpG:yellow>
                           <xmpG:black>0.000000</xmpG:black>
                        </rdf:li>
                        <rdf:li rdf:parseType="Resource">
                           <xmpG:swatchName>C=0 M=75 Y=100 K=0</xmpG:swatchName>
                           <xmpG:mode>CMYK</xmpG:mode>
                           <xmpG:type>PROCESS</xmpG:type>
                           <xmpG:cyan>0.000000</xmpG:cyan>
                           <xmpG:magenta>75.000000</xmpG:magenta>
                           <xmpG:yellow>100.000000</xmpG:yellow>
                           <xmpG:black>0.000000</xmpG:black>
                        </rdf:li>
                        <rdf:li rdf:parseType="Resource">
                           <xmpG:swatchName>C=0 M=10 Y=95 K=0</xmpG:swatchName>
                           <xmpG:mode>CMYK</xmpG:mode>
                           <xmpG:type>PROCESS</xmpG:type>
                           <xmpG:cyan>0.000000</xmpG:cyan>
                           <xmpG:magenta>10.000002</xmpG:magenta>
                           <xmpG:yellow>95.000000</xmpG:yellow>
                           <xmpG:black>0.000000</xmpG:black>
                        </rdf:li>
                        <rdf:li rdf:parseType="Resource">
                           <xmpG:swatchName>C=85 M=10 Y=100 K=0</xmpG:swatchName>
                           <xmpG:mode>CMYK</xmpG:mode>
                           <xmpG:type>PROCESS</xmpG:type>
                           <xmpG:cyan>85.000000</xmpG:cyan>
                           <xmpG:magenta>10.000002</xmpG:magenta>
                           <xmpG:yellow>100.000000</xmpG:yellow>
                           <xmpG:black>0.000000</xmpG:black>
                        </rdf:li>
                        <rdf:li rdf:parseType="Resource">
                           <xmpG:swatchName>C=100 M=90 Y=0 K=0</xmpG:swatchName>
                           <xmpG:mode>CMYK</xmpG:mode>
                           <xmpG:type>PROCESS</xmpG:type>
                           <xmpG:cyan>100.000000</xmpG:cyan>
                           <xmpG:magenta>90.000000</xmpG:magenta>
                           <xmpG:yellow>0.000000</xmpG:yellow>
                           <xmpG:black>0.000000</xmpG:black>
                        </rdf:li>
                        <rdf:li rdf:parseType="Resource">
                           <xmpG:swatchName>C=60 M=90 Y=0 K=0</xmpG:swatchName>
                           <xmpG:mode>CMYK</xmpG:mode>
                           <xmpG:type>PROCESS</xmpG:type>
                           <xmpG:cyan>60.000004</xmpG:cyan>
                           <xmpG:magenta>90.000000</xmpG:magenta>
                           <xmpG:yellow>0.003099</xmpG:yellow>
                           <xmpG:black>0.003099</xmpG:black>
                        </rdf:li>
                     </rdf:Seq>
                  </xmpG:Colorants>
               </rdf:li>
            </rdf:Seq>
         </xmpTPg:SwatchGroups>
      </rdf:Description>
      <rdf:Description rdf:about=""
            xmlns:pdf="http://ns.adobe.com/pdf/1.3/">
         <pdf:Producer>Adobe PDF library 10.01</pdf:Producer>
      </rdf:Description>
   </rdf:RDF>
</x:xmpmeta>
                                                                                                    
                                                                                                    
                                                                                                    
                                                                                                    
                                                                                                    
                                                                                                    
                                                                                                    
                                                                                                    
                                                                                                    
                                                                                                    
                                                                                                    
                                                                                                    
                                                                                                    
                                                                                                    
                                                                                                    
                                                                                                    
                                                                                                    
                                                                                                    
                                                                                                    
                                                                                                    
                           
<?xpacket end="w"?>
	</metadata>
<g id="Layer_1">
</g>
<g id="Layer_2">
	<rect x="-250" fill="none" width="250" height="250"/>
	<rect x="-250" y="250" fill="none" width="250" height="250"/>
	<rect fill="none" width="250" height="250"/>
	<g>
		<path fill-rule="evenodd" clip-rule="evenodd" fill="#FFFFFF" d="M103.1,141.4c0,2.8-0.1,5.6,0,8.4c0.5,10.4-5.3,16.4-11.4,18.4
			c-7.2,2.4-14.3,2.2-21-2.2c-4.8-3.1-7.2-8.2-7.3-14.5c-0.1-7.3,0-14.6-0.1-21.9c0-1.4,0.3-1.9,1.6-1.8c4.6,0.1,9.3,0.1,13.9,0
			c1.3,0,1.6,0.5,1.6,1.9c-0.1,6.1,0,12.1,0,18.2c0,2.9,0.9,4.1,2.8,4.2c2,0.1,3-1.3,3-4.2c0-6,0.1-12,0-17.9c0-1.6,0.4-2.1,1.8-2.1
			c4.5,0.1,9,0.1,13.5,0c1.4,0,1.7,0.5,1.6,2C103,133.6,103.1,137.5,103.1,141.4z"/>
		<path fill-rule="evenodd" clip-rule="evenodd" fill="#FFFFFF" d="M125.3,129.1c1.8-1.2,3.7-1.8,5.8-2.1
			c6.6-0.8,12.5,5.3,12.5,13.1c0,8.9,0,17.9,0,26.8c0,1.4-0.3,1.9-1.5,1.9c-4.6-0.1-9.2-0.1-13.7,0c-1.3,0-1.5-0.5-1.5-1.9
			c0.1-5.1,0-10.1,0-15.2c0-0.9,0-1.7-0.1-2.6c-0.2-1.8-0.8-3.3-2.7-3.3c-1.7,0-2.7,1.1-2.8,3.5c-0.1,5.6-0.2,11.2-0.1,16.8
			c0,2.1-0.4,2.8-2.3,2.7c-4.3-0.2-8.6-0.1-12.9,0c-1.2,0-1.7-0.3-1.7-1.9c0.1-12.3,0-24.6,0-36.8c0-1.3,0.2-2,1.5-2
			c4.8,0.1,9.7,0.1,14.5,0.1c0.2,1.1-0.1,2.1-0.3,3.2c-0.5,1.9,0.5,4.6,1.9,5.3c0.9,0.5,1.6,0.6,1.8-1
			C124.1,133.5,124.6,131.3,125.3,129.1z"/>
		<path fill-rule="evenodd" clip-rule="evenodd" fill="#FFFFFF" d="M183.8,169.6c-4.5-0.2-9-1.1-13-4.1c-6.1-4.7-8.6-11.5-7.8-19.8
			c0.8-8.3,4.7-14.1,11.5-16.9c7.6-3.1,15.3-2.9,22.3,2c6.4,4.4,8.7,11.5,8,19.9c-0.8,8.6-5,14.1-11.8,17.1
			C190,169,186.9,169.5,183.8,169.6z M179,148.3c0,3,2.4,6.1,4.5,5.9c3-0.2,5.2-2.8,5.1-6.1c-0.1-3.2-2.2-5.8-4.9-5.7
			C181.1,142.4,179,145.1,179,148.3z"/>
		<path fill-rule="evenodd" clip-rule="evenodd" fill="#FFFFFF" d="M61.5,117.9c0,12,0.2,23.9,0,35.9c-0.1,5.9-2.5,10.7-7,13.5
			c-7.5,4.7-15.2,5-22.9,0.9c-0.1-0.1-0.2-0.1-0.4-0.2c-4.6-3-4.8-3.8-2.4-9.1c1.8-3.9,3.6-7.8,5.4-11.8c1.6,1.9,3.2,3.4,5.5,3.3
			c2-0.1,3.2-1.2,3.8-3.4c0.3-1.2,0.4-2.4,0.4-3.7c0-6.3,0-12.6,0-18.9C50.5,124.6,56.6,123.3,61.5,117.9z"/>
		<path fill-rule="evenodd" clip-rule="evenodd" fill="#FFFFFF" d="M222.3,133.7c2.3-4.6,5.8-6.4,9.9-6.6c1.1-0.1,1.7,0.2,1.6,1.7
			c-0.1,5.1-0.1,10.3,0,15.4c0,1.2-0.3,1.6-1.2,1.1c-0.2-0.1-0.4-0.2-0.6-0.2c-5.4-2-9,0.8-9.6,7.5c-0.4,4.7-0.2,9.5-0.2,14.2
			c0,1.6-0.4,2.1-1.8,2.1c-4.5-0.1-9-0.1-13.5,0c-1.1,0-1.5-0.4-1.5-1.7c0-12.4,0-24.9,0-37.3c0-1.4,0.4-1.7,1.5-1.7
			c4.6,0.1,9.2,0.1,13.7,0c1.3,0,1.6,0.6,1.5,1.9C222.3,131.1,222.3,132.2,222.3,133.7z"/>
		<path fill-rule="evenodd" clip-rule="evenodd" fill="#FFFFFF" d="M61.5,116.6c-4.9,5.5-11,6.8-17.5,6.6c-1.1-0.2-2.2-0.4-3.4-0.5
			c-1-0.2-2.1-0.6-2.3,1.4c-0.1,1.1-1.1,0.8-1.8,0.9c-0.8,0.1-1.6-0.1-1.7-1.2c-0.2-3.4-2.5-4.6-4.6-6.1c-2.3-1.8-4.5-3.8-6.2-6.5
			c-1.7-2.8-1.5-4.2,1-6.1c2.5-2,5.3-2.8,8.2-3.4c1.1-0.2,1.5-0.7,1.5-1.9c0.1-2.3,0.4-4.5,0.9-6.7c0.2-0.6,0.2-1.6,0.8-1.6
			c0.6,0,0.9,0.8,1.2,1.4c0.9,1.7,0.9,3.6,0.9,5.4c0,2,0.6,2.8,2.4,2.7c2.5-0.1,5,0.5,7.4,1.3c1.1,0.4,2.1,0.9,3.1,1.6
			c1.8,1.5,2.3,3.4,1.5,5.2c-1.1,2.3-2.6,2.9-4.8,1.8c0-0.1,0-0.3,0-0.4c2-2.5,2-2.7-0.9-3.7c-2.3-0.8-4.6-1.3-7-1.5
			c-1.3-0.1-1.8,0.3-1.8,1.9c0.1,3,0.1,6.1,0,9.1c0,1.5,0.6,2.2,1.7,2.4c5.5,1,10.8,0.5,15.6-2.7c3.7-2.4,4.8-6.8,3.5-11.7
			c-0.7-2.5-1.8-4.8-3.4-6.5c-10.1-11.1-22.1-15.9-35.8-15c-0.7,0-1.5,0.1-2.1,0.7c0.2,1.1,1.4,0.4,1.8,1.5c-1,0.8-2.1,0.5-3.1,0.1
			c-1-0.4-0.6-1.4-0.3-2.2c0.9-2.1,2.6-2.8,4.4-3.2c4-1,8.1-0.9,12.1-0.1c8.6,1.8,16.3,5.8,23.1,12.3c2.1,2,3.9,4.2,5.5,6.7
			C64.7,103.8,66,110.3,61.5,116.6z M34.1,110.8C34.1,110.8,34.2,110.8,34.1,110.8c0.2-1.4,0.2-2.8,0.3-4.2c0-0.8-0.2-1.1-0.9-1
			c-2.6,0.3-5.3,0.5-7.8,1.5c-1.7,0.7-2,1.6-0.7,3.2c1.8,2.2,3.8,4,6.3,5.2c2.7,1.4,2.8,1.4,2.9-2.2
			C34.1,112.5,34.1,111.7,34.1,110.8z"/>
		<path fill-rule="evenodd" clip-rule="evenodd" fill="#FFFFFF" d="M161.5,138.7c0.4,3.9,0.1,7.7,0.2,11.6c0.1,5.5,0,11,0,16.5
			c0,1.5-0.3,2-1.6,2c-4.6-0.1-9.1,0-13.7,0c-0.8,0-1.5,0.1-1.4-1.2c0.1-9.7-0.2-19.4,0.2-29.1c4.2,0,8.3-0.1,12.5-0.1
			C158.9,138.4,160.3,138,161.5,138.7z M151.6,143.3c-0.1-1.1-0.7-1.6-1.5-1.5c-0.9,0-1.5,0.6-1.4,1.8c0.1,1,0.6,1.5,1.5,1.5
			C151.1,144.9,151.6,144.3,151.6,143.3z M158.8,143.4c0-1-0.4-1.6-1.3-1.6c-0.9,0-1.6,0.4-1.6,1.5c0,1,0.5,1.6,1.3,1.6
			C158.1,145,158.7,144.5,158.8,143.4z"/>
		<path fill-rule="evenodd" clip-rule="evenodd" fill="#FFFFFF" d="M157.1,109c0-4.6,2-7.3,5.2-7.1c2.7,0.2,4.9,2.9,4.8,6
			c-0.2,3.9-2.7,5.9-7.2,5.4c0.5,2.7,0.6,5.4-0.8,7.8c-0.9,1.6-2.1,2.8-3.7,3.4c-3,1.3-6.4,0.2-8.4-2.8c-2.3-3.4-2.1-7.3,0.6-11.7
			c-2.1-0.2-3.9-0.9-5-3.2c-0.7-1.5-0.8-3.1-0.3-4.7c0.9-3.2,4-4.8,6.6-3.5c3,1.5,3.8,5,2.1,9c1.1,0.1,2.1,0,3.1,0.2
			C155.1,108,156,108.5,157.1,109z"/>
		<path fill-rule="evenodd" clip-rule="evenodd" fill="#FFFFFF" d="M125.3,129.1c-0.8,2.1-1.3,4.3-1.6,6.6c-0.2,1.6-0.9,1.5-1.8,1
			c-1.4-0.7-2.3-3.5-1.9-5.3c0.3-1,0.6-2.1,0.3-3.2c1-3.4,2-6.7,2.9-10.1c0.1-0.4,0-0.9-0.1-1.3c-1.1-5.2,1-12.6,4.5-15.7
			c0.3-0.3,0.6-0.7,1.1-0.5c0.5,0.2,0.5,0.8,0.5,1.4c0,1.4-0.8,2.3-1.3,3.3c-1.2,2.3-2.6,4.5-2.7,7.4c0.8,0.2,0.9-0.6,1.2-1
			c2.1-3,4.1-5.9,6.7-8.2c2.2-1.9,3.9-1.3,4.8,1.7c1.1,3.9,0.8,7.5-1.6,10.6c-2.2,2.8-4.9,4.8-8.2,5.2c-0.9,0.1-1.4,0.4-1.5,1.4
			C126.3,124.7,125.1,126.7,125.3,129.1z M129.6,116c3.9-0.7,6.5-3.6,6.8-7.4c0-0.8,0.2-1.7-0.5-2.1c-0.6-0.3-1.1,0.4-1.5,0.9
			C132.2,109.6,131,112.7,129.6,116z"/>
		<path fill-rule="evenodd" clip-rule="evenodd" fill="#FFFFFF" d="M76.2,106.1c2,1.2,3.8,1.4,5.6,1.5c1.7,0.2,3.5,0.2,5.1,0.9
			c3.2,1.5,4,6.1,1.4,9c-3.2,3.6-10.5,2.9-13.2-1.2c-1.3-2-0.7-4.1,1.4-4.9c3.1-1.1,6-0.2,9,1.4c-1.6,1.8-3.1,1.8-4.8,1.2
			c-1.2-0.4-2.4-1-3.7-0.9c-0.6,0-1.3,0.2-1.4,1c-0.1,1,0.5,1.4,1.2,1.5c3.2,0.6,6.4,0,9.3-1.5c1.4-0.7,1.4-1.8,0-2.7
			c-1.8-1.1-3.8-1.4-5.8-1.5c-1.5-0.1-2.9-0.2-4.4-0.4c-2.4-0.4-3.3-3-1.7-5.3c0.9-1.3,2.2-1.9,3.6-2.4c3.7-1.3,7.3-1.3,11-0.2
			c0.5,0.1,1.2,0.2,1.2,1c0,0.8-0.6,1.2-1.2,1.4c-1.9,0.6-3.9,0.6-5.9,0.8C81,105,78.8,105.1,76.2,106.1z"/>
		<path fill-rule="evenodd" clip-rule="evenodd" fill="#FFFFFF" d="M102.3,113.8c0.5-3.2,0-5.8-0.6-8.4c-0.4-1.9-0.9-3.7-1.4-5.6
			c-0.1-0.6-0.3-1.3,0.3-1.7c0.5-0.4,0.9,0.2,1.2,0.5c3.7,3.3,5.4,13.6,3.1,18.3c-1.4,2.9-3.2,3.1-5,0.4c-1.7-2.6-2.6-5.7-4.2-8.7
			c-0.7,1.4-0.5,2.8-0.6,4c-0.2,2,0,4-0.5,6c-0.2,0.8-0.4,1.6-1.2,1.6c-0.9,0.1-1.3-0.8-1.5-1.5c-0.2-0.6-0.4-1.4-0.4-2
			c0-4.3,0.5-8.5,1.9-12.5c0.8-2.3,1.7-2.4,2.9-0.4c1.4,2.2,2.6,4.5,3.9,6.8C100.8,111.5,101.5,112.4,102.3,113.8z"/>
		<path fill-rule="evenodd" clip-rule="evenodd" fill="#FFFFFF" d="M111.4,115.9c1.9-0.3,3.8-0.6,5.7-0.8c0.8-0.1,1.6-0.1,2,1
			c0.5,1.2-0.3,1.7-0.9,2.2c-1.7,1.5-3.5,2.6-5.5,3.1c-3.7,0.8-5.9-2.2-4.9-6.4c0.4-1.5,1.2-2.9,0.6-4.7c-0.2-0.7,0.4-1.1,1-1.5
			c1.7-1.2,1.6-2.9,0.1-4.2c-0.5-0.4-1.3-0.8-1.1-1.8c0.2-0.8,0.9-0.8,1.5-0.8c2.5-0.3,5-1.1,7.5-1.1c0.7,0,1.4-0.1,2,0.1
			c1.2,0.4,2.1,1.4,2.1,2.7c0,1.4-1.3,1.3-2.1,1.5c-1.3,0.2-2.6,0.3-4,0.2c-1.2,0-1.5,0.7-1.6,1.8c-0.1,1.4,0.8,1.1,1.5,1.2
			c0.7,0,1.5,0,2.2,0c0.9,0,1.3,0.5,1.3,1.5c0,1.1-0.3,1.8-1.3,1.7c-0.6,0-1.2,0-1.8,0.1C112.4,112.1,112.4,112.1,111.4,115.9z"/>
		<path fill-rule="evenodd" clip-rule="evenodd" fill="#FFFFFF" d="M161.5,137.5c-1.3-0.7-2.6-0.3-3.9-0.3c-4.2,0-8.3,0.1-12.5,0.1
			c-0.4-3.1-0.1-6.2-0.2-9.3c0-1,0.5-1.1,1.1-1.1c4.8,0,9.7,0,14.5,0c0.7,0,1.2,0.1,1.1,1.1C161.6,131.1,161.9,134.3,161.5,137.5z"
			/>
		<path fill-rule="evenodd" clip-rule="evenodd" fill="#FFFFFF" d="M69.4,97.7c-1.2,0-2.4-0.8-3.7,0.7c-0.7,0.8-1.3-0.7-1.4-1.5
			c-0.1-1.3-0.5-2.3-1-3.4C62.7,92,63,90.4,63.8,89c2-3.5,4.8-5.6,8.3-6c2.8-0.3,4.8,1.8,6.9,3.5c1,0.8,0.7,2.3,0.4,3.5
			C78.2,93.7,72.8,97.9,69.4,97.7z M68.2,94.3c3.3,0.2,6-0.6,8.2-2.9c0.8-0.9,1.3-2.2,0.6-3.3c-0.6-1-1.7-0.5-2.6-0.1
			C71.8,89,70.1,91.3,68.2,94.3z M69.6,87.2c-2.6,0.5-3.9,2.1-3.8,3.9C66.9,90,68.2,88.7,69.6,87.2z"/>
		<path fill-rule="evenodd" clip-rule="evenodd" fill="#FFFFFF" d="M70.8,111.5c0,2.3,0,4.6,0,7c0,1.1-0.3,2-1.4,2.1
			c-1,0-1.9-0.2-2.1-1.6c-0.2-0.9-0.3-1.8-0.3-2.7c0.1-4.5,0.3-9,0.9-13.4c0.1-0.6-0.3-1.8,0.8-1.7c0.8,0,1.3,0.7,1.4,1.6
			c0.1,1,0.2,2,0.3,3c0.1,1.9,0.2,3.9,0.2,5.8C70.6,111.5,70.7,111.5,70.8,111.5z"/>
		<path fill-rule="evenodd" clip-rule="evenodd" fill="#FFFFFF" d="M129.6,116c1.4-3.3,2.6-6.4,4.8-8.7c0.4-0.4,0.9-1.2,1.5-0.9
			c0.7,0.4,0.5,1.3,0.5,2.1C136.1,112.3,133.5,115.3,129.6,116z"/>
	</g>
	<rect y="250" fill="none" width="250" height="250"/>
</g>
</svg>
